<mxfile host="app.diagrams.net" modified="2023-06-27T07:24:23.129Z" agent="Mozilla/5.0 (Windows NT 10.0; Win64; x64) AppleWebKit/537.36 (KHTML, like Gecko) Chrome/112.0.0.0 Safari/537.36" version="21.2.9" etag="uZJsdKYTcsFzqOXF9ir1" type="github">
  <diagram name="第 1 页" id="Vv8ToTOktWL2AOvHSMgK">
    <mxGraphModel>
      <root>
        <mxCell id="0" />
        <mxCell id="1" parent="0" />
      </root>
    </mxGraphModel>
  </diagram>
</mxfile>
